<mxfile host="app.diagrams.net" modified="2023-11-24T12:30:33.934Z" agent="Mozilla/5.0 (Windows NT 10.0; Win64; x64) AppleWebKit/537.36 (KHTML, like Gecko) Chrome/119.0.0.0 Safari/537.36" etag="A9-1jN4G1Wtfhq5OhouY" version="22.1.3" type="github">
  <diagram name="Page-1" id="t7H7IaRrpxSoDKS3QaAI">
    <mxGraphModel dx="1313" dy="668" grid="1" gridSize="10" guides="1" tooltips="1" connect="1" arrows="1" fold="1" page="1" pageScale="1" pageWidth="850" pageHeight="1100" math="0" shadow="0">
      <root>
        <mxCell id="0" />
        <mxCell id="1" parent="0" />
        <mxCell id="fKhAZFvUPotL8dn38GL9-1" value="" style="whiteSpace=wrap;html=1;aspect=fixed;" vertex="1" parent="1">
          <mxGeometry x="400" y="100" width="810" height="810" as="geometry" />
        </mxCell>
        <object label="Actor" placeholders="1" name="customer" id="fKhAZFvUPotL8dn38GL9-2">
          <mxCell style="shape=umlActor;verticalLabelPosition=bottom;verticalAlign=top;html=1;outlineConnect=0;" vertex="1" parent="1">
            <mxGeometry x="180" y="240" width="100" height="170" as="geometry" />
          </mxCell>
        </object>
      </root>
    </mxGraphModel>
  </diagram>
</mxfile>
